# xmcd
#
# Track frame offsets: 
#        150
#        22361
#        42960
#        56465
#        67979
#        86683
#        112979
#        128872
#        149508
#        166956
#        185233
#        199623
#        216548
#        231050
#        266499
#        302657
#
# Disc length: 4483 seconds
#
# Revision: 2
# Processed by: cddbd v1.5.2PL0 Copyright (c) Steve Scherf et al.
# Submitted via: ExactAudioCopy v0.95b4
#
DISCID=ef118110
DTITLE=Mats Morgan Band - Thanks For Flying With Us
DYEAR=2005
DGENRE=Progressive Rock
TTITLE0=Sinus
TTITLE1=Thanks for flying with us
TTITLE2=Adat dropouts I love  you
TTITLE3=Not us
TTITLE4=JF´S Tati-car
TTITLE5=La Baratte
TTITLE6=Softma
TTITLE7=Wounded bird
TTITLE8=Proppeller häst
TTITLE9=Allan in the rain
TTITLE10=Wenjie
TTITLE11=Please remain seated
TTITLE12=Coco
TTITLE13=Live Neff
TTITLE14=Alive in Enskede
TTITLE15=Ivan
EXTD=YEAR: 2005
EXTT0=
EXTT1=
EXTT2=
EXTT3=
EXTT4=
EXTT5=
EXTT6=
EXTT7=
EXTT8=
EXTT9=
EXTT10=
EXTT11=
EXTT12=
EXTT13=
EXTT14=
EXTT15=
PLAYORDER=
